<svg xmlns="http://www.w3.org/2000/svg" style="filter: hue-rotate(10deg) brightness(0.4) grayscale(0.3) " width="2239" height="1377"><path d="M1248,993L1416,1074L1677,567Z" fill="#18312f" stroke="#18312f" stroke-width="1.51"/><path d="M1677,567L1063,567L1248,993Z" fill="#0e1816" stroke="#0e1816" stroke-width="1.51"/><path d="M1899,1140L1967,712L1677,567Z" fill="#1c4542" stroke="#1c4542" stroke-width="1.51"/><path d="M1677,567L1112,374L1063,567Z" fill="#282e2d" stroke="#282e2d" stroke-width="1.51"/><path d="M1416,1074L1899,1140L1677,567Z" fill="#1c4643" stroke="#1c4643" stroke-width="1.51"/><path d="M1677,567L1685,97L1112,374Z" fill="#485755" stroke="#485755" stroke-width="1.51"/><path d="M1882,116L1685,97L1677,567Z" fill="#5f7a77" stroke="#5f7a77" stroke-width="1.51"/><path d="M1063,567L710,587L1248,993Z" fill="#131414" stroke="#131414" stroke-width="1.51"/><path d="M1112,374L710,587L1063,567Z" fill="#313131" stroke="#313131" stroke-width="1.51"/><path d="M1967,712L1882,116L1677,567Z" fill="#3e5d5a" stroke="#3e5d5a" stroke-width="1.51"/><path d="M1416,1074L1446,1607L1899,1140Z" fill="#216c66" stroke="#216c66" stroke-width="1.51"/><path d="M1052,1602L1446,1607L1416,1074Z" fill="#20625d" stroke="#20625d" stroke-width="1.51"/><path d="M1052,1602L1416,1074L1248,993Z" fill="#1d4a47" stroke="#1d4a47" stroke-width="1.51"/><path d="M710,587L765,1278L1248,993Z" fill="#273836" stroke="#273836" stroke-width="1.51"/><path d="M2559,1201L2356,604L1967,712Z" fill="#206762" stroke="#206762" stroke-width="1.51"/><path d="M1446,1607L1957,1489L1899,1140Z" fill="#218881" stroke="#218881" stroke-width="1.51"/><path d="M1112,374L629,233L710,587Z" fill="#525252" stroke="#525252" stroke-width="1.51"/><path d="M1685,97L1025,-28L1112,374Z" fill="#626868" stroke="#626868" stroke-width="1.51"/><path d="M1682,-160L1025,-28L1685,97Z" fill="#849492" stroke="#849492" stroke-width="1.51"/><path d="M1967,712L2356,604L1882,116Z" fill="#426c69" stroke="#426c69" stroke-width="1.51"/><path d="M2559,1201L1967,712L1899,1140Z" fill="#227670" stroke="#227670" stroke-width="1.51"/><path d="M765,1278L1052,1602L1248,993Z" fill="#275451" stroke="#275451" stroke-width="1.51"/><path d="M1882,116L1682,-160L1685,97Z" fill="#8ca9a5" stroke="#8ca9a5" stroke-width="1.51"/><path d="M2118,-28L1682,-160L1882,116Z" fill="#94b9b5" stroke="#94b9b5" stroke-width="1.51"/><path d="M710,587L181,1020L765,1278Z" fill="#4b5e5c" stroke="#4b5e5c" stroke-width="1.51"/><path d="M1025,-28L629,233L1112,374Z" fill="#6a6a6a" stroke="#6a6a6a" stroke-width="1.51"/><path d="M305,1421L781,1517L765,1278Z" fill="#588c87" stroke="#588c87" stroke-width="1.51"/><path d="M765,1278L781,1517L1052,1602Z" fill="#3b706b" stroke="#3b706b" stroke-width="1.51"/><path d="M2356,604L2118,-28L1882,116Z" fill="#709f9a" stroke="#709f9a" stroke-width="1.51"/><path d="M1957,1489L2345,1545L1899,1140Z" fill="#20a098" stroke="#20a098" stroke-width="1.51"/><path d="M2087,1884L2345,1545L1957,1489Z" fill="#1fa59d" stroke="#1fa59d" stroke-width="1.51"/><path d="M2345,1545L2559,1201L1899,1140Z" fill="#1fa39b" stroke="#1fa39b" stroke-width="1.51"/><path d="M2865,797L2546,303L2356,604Z" fill="#356a65" stroke="#356a65" stroke-width="1.51"/><path d="M2356,604L2546,303L2118,-28Z" fill="#689d98" stroke="#689d98" stroke-width="1.51"/><path d="M1682,-160L1522,-428L1025,-28Z" fill="#828f8d" stroke="#828f8d" stroke-width="1.51"/><path d="M1025,-28L644,-302L629,233Z" fill="#a0a0a0" stroke="#a0a0a0" stroke-width="1.51"/><path d="M1934,-669L1522,-428L1682,-160Z" fill="#8ea9a6" stroke="#8ea9a6" stroke-width="1.51"/><path d="M796,2077L1134,1956L1052,1602Z" fill="#2d625d" stroke="#2d625d" stroke-width="1.51"/><path d="M1052,1602L1134,1956L1446,1607Z" fill="#205b57" stroke="#205b57" stroke-width="1.51"/><path d="M1446,1607L2087,1884L1957,1489Z" fill="#218d85" stroke="#218d85" stroke-width="1.51"/><path d="M1692,2122L2087,1884L1446,1607Z" fill="#22857e" stroke="#22857e" stroke-width="1.51"/><path d="M629,233L190,540L710,587Z" fill="#686868" stroke="#686868" stroke-width="1.51"/><path d="M188,230L190,540L629,233Z" fill="#939393" stroke="#939393" stroke-width="1.51"/><path d="M190,540L181,1020L710,587Z" fill="#515353" stroke="#515353" stroke-width="1.51"/><path d="M781,1517L796,2077L1052,1602Z" fill="#3a6f6a" stroke="#3a6f6a" stroke-width="1.51"/><path d="M1522,-428L1279,-514L1025,-28Z" fill="#7d8483" stroke="#7d8483" stroke-width="1.51"/><path d="M181,1020L305,1421L765,1278Z" fill="#68918d" stroke="#68918d" stroke-width="1.51"/><path d="M2118,-28L1934,-669L1682,-160Z" fill="#95bab6" stroke="#95bab6" stroke-width="1.51"/><path d="M1522,-428L1934,-669L1279,-514Z" fill="#899d9b" stroke="#899d9b" stroke-width="1.51"/><path d="M2546,303L2407,-159L2118,-28Z" fill="#99d0ca" stroke="#99d0ca" stroke-width="1.51"/><path d="M1279,-514L644,-302L1025,-28Z" fill="#878787" stroke="#878787" stroke-width="1.51"/><path d="M644,-302L343,1L629,233Z" fill="#bbbbbb" stroke="#bbbbbb" stroke-width="1.51"/><path d="M1134,1956L1692,2122L1446,1607Z" fill="#216c66" stroke="#216c66" stroke-width="1.51"/><path d="M343,1L188,230L629,233Z" fill="#afafaf" stroke="#afafaf" stroke-width="1.51"/><path d="M190,540L-97,566L181,1020Z" fill="#6e706f" stroke="#6e706f" stroke-width="1.51"/><path d="M2836,1239L2865,797L2559,1201Z" fill="#22867f" stroke="#22867f" stroke-width="1.51"/><path d="M2559,1201L2865,797L2356,604Z" fill="#216a65" stroke="#216a65" stroke-width="1.51"/><path d="M2546,303L2858,-11L2407,-159Z" fill="#98cec8" stroke="#98cec8" stroke-width="1.51"/><path d="M2689,1700L2836,1239L2559,1201Z" fill="#1dafa6" stroke="#1dafa6" stroke-width="1.51"/><path d="M2689,1700L2559,1201L2345,1545Z" fill="#1dafa6" stroke="#1dafa6" stroke-width="1.51"/><path d="M1134,1956L1420,2293L1692,2122Z" fill="#206b66" stroke="#206b66" stroke-width="1.51"/><path d="M294,2096L796,2077L781,1517Z" fill="#578c87" stroke="#578c87" stroke-width="1.51"/><path d="M2485,1935L2345,1545L2087,1884Z" fill="#1dafa6" stroke="#1dafa6" stroke-width="1.51"/><path d="M1062,2487L1420,2293L1134,1956Z" fill="#1f5b56" stroke="#1f5b56" stroke-width="1.51"/><path d="M2407,-159L1934,-669L2118,-28Z" fill="#9ecfca" stroke="#9ecfca" stroke-width="1.51"/><path d="M2485,1935L2689,1700L2345,1545Z" fill="#1dafa6" stroke="#1dafa6" stroke-width="1.51"/><path d="M2485,1935L2087,1884L2527,2414Z" fill="#1dafa6" stroke="#1dafa6" stroke-width="1.51"/><path d="M1808,2497L2087,1884L1692,2122Z" fill="#218f88" stroke="#218f88" stroke-width="1.51"/><path d="M-215,188L-97,566L188,230Z" fill="#bcbcbc" stroke="#bcbcbc" stroke-width="1.51"/><path d="M188,230L-97,566L190,540Z" fill="#9a9a9a" stroke="#9a9a9a" stroke-width="1.51"/><path d="M181,1020L-163,1190L305,1421Z" fill="#8ab2ae" stroke="#8ab2ae" stroke-width="1.51"/><path d="M2407,-159L2269,-754L1934,-669Z" fill="#9fd4ce" stroke="#9fd4ce" stroke-width="1.51"/><path d="M3178,562L2887,102L2546,303Z" fill="#629792" stroke="#629792" stroke-width="1.51"/><path d="M644,-302L423,-470L343,1Z" fill="#c3c3c3" stroke="#c3c3c3" stroke-width="1.51"/><path d="M-205,-147L-215,188L188,230Z" fill="#ececec" stroke="#ececec" stroke-width="1.51"/><path d="M1279,-514L633,-582L644,-302Z" fill="#969696" stroke="#969696" stroke-width="1.51"/><path d="M1934,-669L633,-582L1279,-514Z" fill="#7d8483" stroke="#7d8483" stroke-width="1.51"/><path d="M2887,102L2858,-11L2546,303Z" fill="#87bdb7" stroke="#87bdb7" stroke-width="1.51"/><path d="M633,-582L423,-470L644,-302Z" fill="#b8b8b8" stroke="#b8b8b8" stroke-width="1.51"/><path d="M305,1421L294,2096L781,1517Z" fill="#6a9f9a" stroke="#6a9f9a" stroke-width="1.51"/><path d="M-97,566L-163,1190L181,1020Z" fill="#869795" stroke="#869795" stroke-width="1.51"/><path d="M-163,1190L-120,1468L305,1421Z" fill="#9fd4ce" stroke="#9fd4ce" stroke-width="1.51"/><path d="M2760,-681L2269,-754L2407,-159Z" fill="#a0d7d2" stroke="#a0d7d2" stroke-width="1.51"/><path d="M1934,-669L2269,-754L633,-582Z" fill="#8aa09e" stroke="#8aa09e" stroke-width="1.51"/><path d="M2865,797L3178,562L2546,303Z" fill="#376c67" stroke="#376c67" stroke-width="1.51"/><path d="M2887,102L3140,-81L2858,-11Z" fill="#a0d7d1" stroke="#a0d7d1" stroke-width="1.51"/><path d="M3271,1167L3178,562L2865,797Z" fill="#216862" stroke="#216862" stroke-width="1.51"/><path d="M3271,1167L2865,797L2836,1239Z" fill="#21857e" stroke="#21857e" stroke-width="1.51"/><path d="M796,2077L1062,2487L1134,1956Z" fill="#2c615d" stroke="#2c615d" stroke-width="1.51"/><path d="M1420,2293L1808,2497L1692,2122Z" fill="#217d76" stroke="#217d76" stroke-width="1.51"/><path d="M727,2414L1062,2487L796,2077Z" fill="#3c716c" stroke="#3c716c" stroke-width="1.51"/><path d="M1062,2487L1808,2497L1420,2293Z" fill="#216c67" stroke="#216c67" stroke-width="1.51"/><path d="M-63,1990L294,2096L305,1421Z" fill="#8bc1bc" stroke="#8bc1bc" stroke-width="1.51"/><path d="M-644,1117L-460,1443L-163,1190Z" fill="#99c5c0" stroke="#99c5c0" stroke-width="1.51"/><path d="M-205,-147L188,230L343,1Z" fill="#ebebeb" stroke="#ebebeb" stroke-width="1.51"/><path d="M401,2350L727,2414L796,2077Z" fill="#558a85" stroke="#558a85" stroke-width="1.51"/><path d="M3361,1389L2836,1239L2689,1700Z" fill="#1dafa6" stroke="#1dafa6" stroke-width="1.51"/><path d="M3361,1389L3271,1167L2836,1239Z" fill="#209f97" stroke="#209f97" stroke-width="1.51"/><path d="M3271,1167L3287,377L3178,562Z" fill="#1f5652" stroke="#1f5652" stroke-width="1.51"/><path d="M3178,562L3287,377L2887,102Z" fill="#5e938e" stroke="#5e938e" stroke-width="1.51"/><path d="M2858,-11L2760,-681L2407,-159Z" fill="#a0d7d2" stroke="#a0d7d2" stroke-width="1.51"/><path d="M3287,377L3140,-81L2887,102Z" fill="#86bcb7" stroke="#86bcb7" stroke-width="1.51"/><path d="M294,2096L401,2350L796,2077Z" fill="#659b95" stroke="#659b95" stroke-width="1.51"/><path d="M727,2414L-237,2322L1062,2487Z" fill="#639893" stroke="#639893" stroke-width="1.51"/><path d="M-237,2322L401,2350L294,2096Z" fill="#8ec4bf" stroke="#8ec4bf" stroke-width="1.51"/><path d="M-301,-442L-205,-147L423,-470Z" fill="#ffffff" stroke="#ffffff" stroke-width="1.51"/><path d="M423,-470L-205,-147L343,1Z" fill="#e7e7e7" stroke="#e7e7e7" stroke-width="1.51"/><path d="M-120,1468L-63,1990L305,1421Z" fill="#9cd3cd" stroke="#9cd3cd" stroke-width="1.51"/><path d="M-460,1443L-63,1990L-120,1468Z" fill="#a0d7d2" stroke="#a0d7d2" stroke-width="1.51"/><path d="M3140,-81L2760,-681L2858,-11Z" fill="#a0d7d2" stroke="#a0d7d2" stroke-width="1.51"/><path d="M2485,1935L2937,2123L2689,1700Z" fill="#1dafa6" stroke="#1dafa6" stroke-width="1.51"/><path d="M1808,2497L2527,2414L2087,1884Z" fill="#1fa69e" stroke="#1fa69e" stroke-width="1.51"/><path d="M3178,1977L3361,1389L2689,1700Z" fill="#1dafa6" stroke="#1dafa6" stroke-width="1.51"/><path d="M3271,1167L3361,1389L3287,377Z" fill="#217973" stroke="#217973" stroke-width="1.51"/><path d="M2527,2414L2937,2123L2485,1935Z" fill="#1dafa6" stroke="#1dafa6" stroke-width="1.51"/><path d="M-163,1190L-460,1443L-120,1468Z" fill="#a0d6d0" stroke="#a0d6d0" stroke-width="1.51"/><path d="M-644,1117L-163,1190L-676,841Z" fill="#8ea8a5" stroke="#8ea8a5" stroke-width="1.51"/><path d="M-163,1190L-97,566L-676,841Z" fill="#828f8d" stroke="#828f8d" stroke-width="1.51"/><path d="M3337,2476L3178,1977L2937,2123Z" fill="#1dafa6" stroke="#1dafa6" stroke-width="1.51"/><path d="M2937,2123L3178,1977L2689,1700Z" fill="#1dafa6" stroke="#1dafa6" stroke-width="1.51"/><path d="M2527,2414L2886,2342L2937,2123Z" fill="#1dafa6" stroke="#1dafa6" stroke-width="1.51"/><path d="M-676,841L-97,566L-661,421Z" fill="#858585" stroke="#858585" stroke-width="1.51"/><path d="M-661,421L-97,566L-215,188Z" fill="#afafaf" stroke="#afafaf" stroke-width="1.51"/><path d="M-510,-268L-661,421L-215,188Z" fill="#e7e7e7" stroke="#e7e7e7" stroke-width="1.51"/><path d="M-580,-613L-301,-442L423,-470Z" fill="#ffffff" stroke="#ffffff" stroke-width="1.51"/><path d="M-510,-268L-215,188L-205,-147Z" fill="#ffffff" stroke="#ffffff" stroke-width="1.51"/><path d="M3140,-81L3228,-571L2760,-681Z" fill="#a0d7d2" stroke="#a0d7d2" stroke-width="1.51"/><path d="M3287,377L3228,-571L3140,-81Z" fill="#a0d7d2" stroke="#a0d7d2" stroke-width="1.51"/><path d="M3361,1389L3228,-571L3287,377Z" fill="#548984" stroke="#548984" stroke-width="1.51"/><path d="M-301,-442L-510,-268L-205,-147Z" fill="#ffffff" stroke="#ffffff" stroke-width="1.51"/><path d="M401,2350L-237,2322L727,2414Z" fill="#7db2ad" stroke="#7db2ad" stroke-width="1.51"/><path d="M-63,1990L-237,2322L294,2096Z" fill="#a0d7d2" stroke="#a0d7d2" stroke-width="1.51"/><path d="M-556,2099L-237,2322L-63,1990Z" fill="#a0d7d2" stroke="#a0d7d2" stroke-width="1.51"/><path d="M-556,2099L-63,1990L-460,1443Z" fill="#a0d7d2" stroke="#a0d7d2" stroke-width="1.51"/><path d="M-644,1117L-556,2099L-460,1443Z" fill="#a0d7d2" stroke="#a0d7d2" stroke-width="1.51"/><path d="M-568,2316L-556,2099L-644,1117Z" fill="#a0d7d2" stroke="#a0d7d2" stroke-width="1.51"/><path d="M-301,-442L-580,-613L-510,-268Z" fill="#ffffff" stroke="#ffffff" stroke-width="1.51"/><path d="M-510,-268L-580,-613L-661,421Z" fill="#ffffff" stroke="#ffffff" stroke-width="1.51"/><path d="M633,-582L-580,-613L423,-470Z" fill="#ebebeb" stroke="#ebebeb" stroke-width="1.51"/><path d="M2269,-754L-580,-613L633,-582Z" fill="#9f9f9f" stroke="#9f9f9f" stroke-width="1.51"/><path d="M1808,2497L3337,2476L2527,2414Z" fill="#1dafa6" stroke="#1dafa6" stroke-width="1.51"/><path d="M2527,2414L3337,2476L2886,2342Z" fill="#1dafa6" stroke="#1dafa6" stroke-width="1.51"/><path d="M2886,2342L3337,2476L2937,2123Z" fill="#1dafa6" stroke="#1dafa6" stroke-width="1.51"/><path d="M3178,1977L3337,2476L3361,1389Z" fill="#1dafa6" stroke="#1dafa6" stroke-width="1.51"/><path d="M-676,841L-568,2316L-644,1117Z" fill="#a0d7d2" stroke="#a0d7d2" stroke-width="1.51"/><path d="M-556,2099L-568,2316L-237,2322Z" fill="#a0d7d2" stroke="#a0d7d2" stroke-width="1.51"/><path d="M-237,2322L-568,2316L1062,2487Z" fill="#96cdc7" stroke="#96cdc7" stroke-width="1.51"/></svg>
