<svg xmlns="http://www.w3.org/2000/svg" width="2239" height="1377"><path d="M1036,735L954,906L1240,927Z" fill="#a8bbfd" stroke="#a8bbfd" stroke-width="1.51"/><path d="M1240,927L1306,702L1036,735Z" fill="#a9bbfd" stroke="#a9bbfd" stroke-width="1.51"/><path d="M954,906L984,1234L1240,927Z" fill="#9fb5fc" stroke="#9fb5fc" stroke-width="1.51"/><path d="M708,744L764,958L954,906Z" fill="#b2c2fd" stroke="#b2c2fd" stroke-width="1.51"/><path d="M765,1168L984,1234L954,906Z" fill="#9fb6fd" stroke="#9fb6fd" stroke-width="1.51"/><path d="M1036,735L708,744L954,906Z" fill="#b3c3fe" stroke="#b3c3fe" stroke-width="1.51"/><path d="M696,453L708,744L1036,735Z" fill="#c0cbfe" stroke="#c0cbfe" stroke-width="1.51"/><path d="M984,1234L1310,1256L1240,927Z" fill="#92adfc" stroke="#92adfc" stroke-width="1.51"/><path d="M1240,927L1537,726L1306,702Z" fill="#a2b7fd" stroke="#a2b7fd" stroke-width="1.51"/><path d="M1310,1256L1527,1000L1240,927Z" fill="#90abfc" stroke="#90abfc" stroke-width="1.51"/><path d="M764,958L765,1168L954,906Z" fill="#a9bbfd" stroke="#a9bbfd" stroke-width="1.51"/><path d="M503,982L765,1168L764,958Z" fill="#acbefd" stroke="#acbefd" stroke-width="1.51"/><path d="M1527,1000L1537,726L1240,927Z" fill="#98b1fc" stroke="#98b1fc" stroke-width="1.51"/><path d="M1545,363L1257,421L1306,702Z" fill="#b4c3fd" stroke="#b4c3fd" stroke-width="1.51"/><path d="M1306,702L1257,421L1036,735Z" fill="#b3c2fe" stroke="#b3c2fe" stroke-width="1.51"/><path d="M1257,421L972,391L1036,735Z" fill="#bdcafe" stroke="#bdcafe" stroke-width="1.51"/><path d="M1236,1496L1476,1281L1310,1256Z" fill="#7ba1fb" stroke="#7ba1fb" stroke-width="1.51"/><path d="M1310,1256L1476,1281L1527,1000Z" fill="#83a5fb" stroke="#83a5fb" stroke-width="1.51"/><path d="M972,391L696,453L1036,735Z" fill="#c3cefe" stroke="#c3cefe" stroke-width="1.51"/><path d="M708,744L503,982L764,958Z" fill="#b6c5fd" stroke="#b6c5fd" stroke-width="1.51"/><path d="M459,696L503,982L708,744Z" fill="#bfcbfe" stroke="#bfcbfe" stroke-width="1.51"/><path d="M984,1234L1236,1496L1310,1256Z" fill="#84a5fb" stroke="#84a5fb" stroke-width="1.51"/><path d="M960,1503L1236,1496L984,1234Z" fill="#86a6fb" stroke="#86a6fb" stroke-width="1.51"/><path d="M762,1452L960,1503L984,1234Z" fill="#8daafc" stroke="#8daafc" stroke-width="1.51"/><path d="M762,1452L984,1234L765,1168Z" fill="#96b0fc" stroke="#96b0fc" stroke-width="1.51"/><path d="M696,453L459,696L708,744Z" fill="#c7d1fe" stroke="#c7d1fe" stroke-width="1.51"/><path d="M415,1272L762,1452L765,1168Z" fill="#9db4fd" stroke="#9db4fd" stroke-width="1.51"/><path d="M1537,726L1545,363L1306,702Z" fill="#aabdfd" stroke="#aabdfd" stroke-width="1.51"/><path d="M1209,93L941,117L972,391Z" fill="#d1d9fe" stroke="#d1d9fe" stroke-width="1.51"/><path d="M1537,726L1767,375L1545,363Z" fill="#abbdfd" stroke="#abbdfd" stroke-width="1.51"/><path d="M1831,905L1799,707L1537,726Z" fill="#93aefc" stroke="#93aefc" stroke-width="1.51"/><path d="M1831,905L1537,726L1527,1000Z" fill="#91acfc" stroke="#91acfc" stroke-width="1.51"/><path d="M1767,1230L1831,905L1527,1000Z" fill="#82a3fb" stroke="#82a3fb" stroke-width="1.51"/><path d="M696,453L483,459L459,696Z" fill="#cfd8fe" stroke="#cfd8fe" stroke-width="1.51"/><path d="M478,143L483,459L696,453Z" fill="#dadffe" stroke="#dadffe" stroke-width="1.51"/><path d="M1476,1281L1767,1230L1527,1000Z" fill="#7da1fb" stroke="#7da1fb" stroke-width="1.51"/><path d="M1562,1549L1767,1230L1476,1281Z" fill="#6e9afb" stroke="#6e9afb" stroke-width="1.51"/><path d="M972,391L721,148L696,453Z" fill="#d2dafe" stroke="#d2dafe" stroke-width="1.51"/><path d="M1209,93L972,391L1257,421Z" fill="#c7d2fe" stroke="#c7d2fe" stroke-width="1.51"/><path d="M1535,203L1209,93L1257,421Z" fill="#c4cffe" stroke="#c4cffe" stroke-width="1.51"/><path d="M225,943L415,1272L503,982Z" fill="#b6c5fd" stroke="#b6c5fd" stroke-width="1.51"/><path d="M503,982L415,1272L765,1168Z" fill="#abbdfd" stroke="#abbdfd" stroke-width="1.51"/><path d="M1767,375L1535,203L1545,363Z" fill="#b6c5fe" stroke="#b6c5fe" stroke-width="1.51"/><path d="M1545,363L1535,203L1257,421Z" fill="#bbc9fd" stroke="#bbc9fd" stroke-width="1.51"/><path d="M941,117L721,148L972,391Z" fill="#d5ddff" stroke="#d5ddff" stroke-width="1.51"/><path d="M1236,1496L1562,1549L1476,1281Z" fill="#759dfb" stroke="#759dfb" stroke-width="1.51"/><path d="M1285,1753L1562,1549L1236,1496Z" fill="#789ffb" stroke="#789ffb" stroke-width="1.51"/><path d="M1799,707L1767,375L1537,726Z" fill="#a0b6fd" stroke="#a0b6fd" stroke-width="1.51"/><path d="M2035,678L1767,375L1799,707Z" fill="#9bb2fd" stroke="#9bb2fd" stroke-width="1.51"/><path d="M459,696L225,943L503,982Z" fill="#c1cdfe" stroke="#c1cdfe" stroke-width="1.51"/><path d="M188,734L225,943L459,696Z" fill="#c9d4fe" stroke="#c9d4fe" stroke-width="1.51"/><path d="M960,1503L980,1745L1236,1496Z" fill="#86a6fb" stroke="#86a6fb" stroke-width="1.51"/><path d="M671,1749L980,1745L960,1503Z" fill="#8fabfc" stroke="#8fabfc" stroke-width="1.51"/><path d="M671,1749L960,1503L762,1452Z" fill="#92adfc" stroke="#92adfc" stroke-width="1.51"/><path d="M980,1745L1285,1753L1236,1496Z" fill="#81a3fb" stroke="#81a3fb" stroke-width="1.51"/><path d="M483,459L188,734L459,696Z" fill="#cfd8fe" stroke="#cfd8fe" stroke-width="1.51"/><path d="M192,378L188,734L483,459Z" fill="#d9dfff" stroke="#d9dfff" stroke-width="1.51"/><path d="M415,1272L445,1533L762,1452Z" fill="#9cb4fc" stroke="#9cb4fc" stroke-width="1.51"/><path d="M161,1445L445,1533L415,1272Z" fill="#a4b9fd" stroke="#a4b9fd" stroke-width="1.51"/><path d="M941,117L693,-96L721,148Z" fill="#e2e7ff" stroke="#e2e7ff" stroke-width="1.51"/><path d="M1209,93L1036,-63L941,117Z" fill="#d9e0fe" stroke="#d9e0fe" stroke-width="1.51"/><path d="M1197,-81L1036,-63L1209,93Z" fill="#d8dffe" stroke="#d8dffe" stroke-width="1.51"/><path d="M1831,905L2035,678L1799,707Z" fill="#8eaafc" stroke="#8eaafc" stroke-width="1.51"/><path d="M2106,931L2035,678L1831,905Z" fill="#83a5fc" stroke="#83a5fc" stroke-width="1.51"/><path d="M1501,-151L1197,-81L1209,93Z" fill="#d3dbfe" stroke="#d3dbfe" stroke-width="1.51"/><path d="M1501,-151L1209,93L1535,203Z" fill="#ccd6fe" stroke="#ccd6fe" stroke-width="1.51"/><path d="M721,148L478,143L696,453Z" fill="#dce2ff" stroke="#dce2ff" stroke-width="1.51"/><path d="M693,-96L478,143L721,148Z" fill="#e6eaff" stroke="#e6eaff" stroke-width="1.51"/><path d="M1767,1230L2010,1196L1831,905Z" fill="#759cfb" stroke="#759cfb" stroke-width="1.51"/><path d="M1822,1524L2010,1196L1767,1230Z" fill="#6394fa" stroke="#6394fa" stroke-width="1.51"/><path d="M1799,1808L1822,1524L1562,1549Z" fill="#6595fa" stroke="#6595fa" stroke-width="1.51"/><path d="M1562,1549L1822,1524L1767,1230Z" fill="#6696fa" stroke="#6696fa" stroke-width="1.51"/><path d="M445,1533L671,1749L762,1452Z" fill="#99b1fc" stroke="#99b1fc" stroke-width="1.51"/><path d="M980,1745L1799,1808L1285,1753Z" fill="#789ffb" stroke="#789ffb" stroke-width="1.51"/><path d="M1767,375L1805,190L1535,203Z" fill="#b5c5fd" stroke="#b5c5fd" stroke-width="1.51"/><path d="M2101,392L1805,190L1767,375Z" fill="#abbdfd" stroke="#abbdfd" stroke-width="1.51"/><path d="M1285,1753L1545,1746L1562,1549Z" fill="#739cfb" stroke="#739cfb" stroke-width="1.51"/><path d="M2010,1196L2106,931L1831,905Z" fill="#779dfb" stroke="#779dfb" stroke-width="1.51"/><path d="M225,943L158,1228L415,1272Z" fill="#b5c4fe" stroke="#b5c4fe" stroke-width="1.51"/><path d="M-57,965L158,1228L225,943Z" fill="#c1cdfe" stroke="#c1cdfe" stroke-width="1.51"/><path d="M188,734L-57,965L225,943Z" fill="#cad4fe" stroke="#cad4fe" stroke-width="1.51"/><path d="M478,143L192,378L483,459Z" fill="#e0e5ff" stroke="#e0e5ff" stroke-width="1.51"/><path d="M478,143L148,118L192,378Z" fill="#ebeeff" stroke="#ebeeff" stroke-width="1.51"/><path d="M1036,-63L693,-96L941,117Z" fill="#e1e6ff" stroke="#e1e6ff" stroke-width="1.51"/><path d="M951,-363L693,-96L1036,-63Z" fill="#e1e6ff" stroke="#e1e6ff" stroke-width="1.51"/><path d="M445,1533L428,1721L671,1749Z" fill="#9db4fd" stroke="#9db4fd" stroke-width="1.51"/><path d="M156,1752L428,1721L445,1533Z" fill="#a4b9fd" stroke="#a4b9fd" stroke-width="1.51"/><path d="M1197,-81L951,-363L1036,-63Z" fill="#dce2fe" stroke="#dce2fe" stroke-width="1.51"/><path d="M1754,-90L1501,-151L1535,203Z" fill="#c9d3fe" stroke="#c9d3fe" stroke-width="1.51"/><path d="M158,1228L161,1445L415,1272Z" fill="#acbefd" stroke="#acbefd" stroke-width="1.51"/><path d="M1805,190L1754,-90L1535,203Z" fill="#bfccfe" stroke="#bfccfe" stroke-width="1.51"/><path d="M2035,678L2101,392L1767,375Z" fill="#9eb4fc" stroke="#9eb4fc" stroke-width="1.51"/><path d="M2375,698L2101,392L2035,678Z" fill="#8eaafc" stroke="#8eaafc" stroke-width="1.51"/><path d="M693,-96L472,-61L478,143Z" fill="#edefff" stroke="#edefff" stroke-width="1.51"/><path d="M2304,1223L2347,951L2106,931Z" fill="#6796fa" stroke="#6796fa" stroke-width="1.51"/><path d="M1822,1524L2019,1551L2010,1196Z" fill="#5890fa" stroke="#5890fa" stroke-width="1.51"/><path d="M2020,1706L2019,1551L1822,1524Z" fill="#5790fa" stroke="#5790fa" stroke-width="1.51"/><path d="M158,1228L-118,1202L161,1445Z" fill="#b4c4fe" stroke="#b4c4fe" stroke-width="1.51"/><path d="M-77,663L-57,965L188,734Z" fill="#d3dbfe" stroke="#d3dbfe" stroke-width="1.51"/><path d="M2059,147L1754,-90L1805,190Z" fill="#bac8fe" stroke="#bac8fe" stroke-width="1.51"/><path d="M1545,1746L1799,1808L1562,1549Z" fill="#6a98fb" stroke="#6a98fb" stroke-width="1.51"/><path d="M1285,1753L1799,1808L1545,1746Z" fill="#6f9afb" stroke="#6f9afb" stroke-width="1.51"/><path d="M-64,1820L1799,1808L980,1745Z" fill="#8daafc" stroke="#8daafc" stroke-width="1.51"/><path d="M192,378L-77,663L188,734Z" fill="#dbe1ff" stroke="#dbe1ff" stroke-width="1.51"/><path d="M-92,446L-77,663L192,378Z" fill="#e4e8ff" stroke="#e4e8ff" stroke-width="1.51"/><path d="M2101,392L2059,147L1805,190Z" fill="#acbefd" stroke="#acbefd" stroke-width="1.51"/><path d="M472,-61L148,118L478,143Z" fill="#f0f1ff" stroke="#f0f1ff" stroke-width="1.51"/><path d="M2304,1223L2106,931L2010,1196Z" fill="#6696fa" stroke="#6696fa" stroke-width="1.51"/><path d="M1799,1808L2020,1706L1822,1524Z" fill="#5c92fa" stroke="#5c92fa" stroke-width="1.51"/><path d="M1294,-415L1197,-81L1501,-151Z" fill="#d2dafe" stroke="#d2dafe" stroke-width="1.51"/><path d="M1294,-415L951,-363L1197,-81Z" fill="#d8dffe" stroke="#d8dffe" stroke-width="1.51"/><path d="M693,-96L453,-422L472,-61Z" fill="#edf0ff" stroke="#edf0ff" stroke-width="1.51"/><path d="M151,-170L-69,108L148,118Z" fill="#fcfcff" stroke="#fcfcff" stroke-width="1.51"/><path d="M2106,931L2375,698L2035,678Z" fill="#80a3fb" stroke="#80a3fb" stroke-width="1.51"/><path d="M2101,392L2295,100L2059,147Z" fill="#a7bbfd" stroke="#a7bbfd" stroke-width="1.51"/><path d="M2304,1223L2010,1196L2019,1551Z" fill="#538efa" stroke="#538efa" stroke-width="1.51"/><path d="M2385,1550L2304,1223L2019,1551Z" fill="#4389f9" stroke="#4389f9" stroke-width="1.51"/><path d="M-57,965L-118,1202L158,1228Z" fill="#c0cdfe" stroke="#c0cdfe" stroke-width="1.51"/><path d="M161,1445L156,1752L445,1533Z" fill="#a7bbfd" stroke="#a7bbfd" stroke-width="1.51"/><path d="M-316,923L-118,1202L-57,965Z" fill="#c6d1fe" stroke="#c6d1fe" stroke-width="1.51"/><path d="M-77,663L-316,923L-57,965Z" fill="#d0d9fe" stroke="#d0d9fe" stroke-width="1.51"/><path d="M-69,108L-92,446L192,378Z" fill="#eef0ff" stroke="#eef0ff" stroke-width="1.51"/><path d="M2347,951L2375,698L2106,931Z" fill="#769efb" stroke="#769efb" stroke-width="1.51"/><path d="M671,1749L-64,1820L980,1745Z" fill="#9db4fd" stroke="#9db4fd" stroke-width="1.51"/><path d="M428,1721L156,1752L671,1749Z" fill="#a1b7fd" stroke="#a1b7fd" stroke-width="1.51"/><path d="M-36,1535L156,1752L161,1445Z" fill="#aebffd" stroke="#aebffd" stroke-width="1.51"/><path d="M1568,-378L1294,-415L1501,-151Z" fill="#ced7fe" stroke="#ced7fe" stroke-width="1.51"/><path d="M-118,1202L-36,1535L161,1445Z" fill="#b1c2fd" stroke="#b1c2fd" stroke-width="1.51"/><path d="M1754,-90L1568,-378L1501,-151Z" fill="#c8d2fe" stroke="#c8d2fe" stroke-width="1.51"/><path d="M1784,-381L1568,-378L1754,-90Z" fill="#c5d0fe" stroke="#c5d0fe" stroke-width="1.51"/><path d="M951,-363L761,-429L693,-96Z" fill="#e4e9ff" stroke="#e4e9ff" stroke-width="1.51"/><path d="M1294,-415L761,-429L951,-363Z" fill="#dde3ff" stroke="#dde3ff" stroke-width="1.51"/><path d="M2059,147L2071,-137L1754,-90Z" fill="#bbc9fd" stroke="#bbc9fd" stroke-width="1.51"/><path d="M2375,698L2384,415L2101,392Z" fill="#90acfc" stroke="#90acfc" stroke-width="1.51"/><path d="M148,118L-69,108L192,378Z" fill="#f1f3ff" stroke="#f1f3ff" stroke-width="1.51"/><path d="M151,-170L148,118L472,-61Z" fill="#f7f8ff" stroke="#f7f8ff" stroke-width="1.51"/><path d="M2276,-74L2071,-137L2059,147Z" fill="#b5c4fd" stroke="#b5c4fd" stroke-width="1.51"/><path d="M453,-422L151,-170L472,-61Z" fill="#f3f5ff" stroke="#f3f5ff" stroke-width="1.51"/><path d="M-118,1202L-354,1469L-36,1535Z" fill="#b1c2fd" stroke="#b1c2fd" stroke-width="1.51"/><path d="M-380,689L-316,923L-77,663Z" fill="#d6ddfe" stroke="#d6ddfe" stroke-width="1.51"/><path d="M-380,689L-77,663L-391,473Z" fill="#dee4ff" stroke="#dee4ff" stroke-width="1.51"/><path d="M2384,415L2295,100L2101,392Z" fill="#9eb5fd" stroke="#9eb5fd" stroke-width="1.51"/><path d="M2071,-137L1784,-381L1754,-90Z" fill="#bfcbfe" stroke="#bfcbfe" stroke-width="1.51"/><path d="M1568,-378L1784,-381L1294,-415Z" fill="#cad4fe" stroke="#cad4fe" stroke-width="1.51"/><path d="M761,-429L453,-422L693,-96Z" fill="#eaedff" stroke="#eaedff" stroke-width="1.51"/><path d="M2299,1772L2385,1550L2019,1551Z" fill="#4489f9" stroke="#4489f9" stroke-width="1.51"/><path d="M2613,973L2602,718L2347,951Z" fill="#759dfb" stroke="#759dfb" stroke-width="1.51"/><path d="M2347,951L2602,718L2375,698Z" fill="#7ca0fb" stroke="#7ca0fb" stroke-width="1.51"/><path d="M2375,698L2602,718L2384,415Z" fill="#89a8fc" stroke="#89a8fc" stroke-width="1.51"/><path d="M2299,1772L2019,1551L2020,1706Z" fill="#4d8cfa" stroke="#4d8cfa" stroke-width="1.51"/><path d="M-391,473L-77,663L-92,446Z" fill="#e2e7ff" stroke="#e2e7ff" stroke-width="1.51"/><path d="M1799,1808L2299,1772L2020,1706Z" fill="#528efa" stroke="#528efa" stroke-width="1.51"/><path d="M-36,1535L-64,1820L156,1752Z" fill="#b1c1fd" stroke="#b1c1fd" stroke-width="1.51"/><path d="M156,1752L-64,1820L671,1749Z" fill="#a7bbfd" stroke="#a7bbfd" stroke-width="1.51"/><path d="M-354,1469L-64,1820L-36,1535Z" fill="#b1c2fd" stroke="#b1c2fd" stroke-width="1.51"/><path d="M-316,923L-349,1272L-118,1202Z" fill="#c0ccfe" stroke="#c0ccfe" stroke-width="1.51"/><path d="M-380,689L-349,1272L-316,923Z" fill="#cad4fe" stroke="#cad4fe" stroke-width="1.51"/><path d="M2071,-137L2095,-369L1784,-381Z" fill="#bbc8fd" stroke="#bbc8fd" stroke-width="1.51"/><path d="M2295,100L2276,-74L2059,147Z" fill="#afc0fd" stroke="#afc0fd" stroke-width="1.51"/><path d="M2608,-132L2276,-74L2295,100Z" fill="#b1c2fd" stroke="#b1c2fd" stroke-width="1.51"/><path d="M2613,973L2347,951L2600,1188Z" fill="#6796fa" stroke="#6796fa" stroke-width="1.51"/><path d="M2384,415L2589,178L2295,100Z" fill="#a3b8fd" stroke="#a3b8fd" stroke-width="1.51"/><path d="M2600,1188L2304,1223L2385,1550Z" fill="#4a8bf9" stroke="#4a8bf9" stroke-width="1.51"/><path d="M2600,1188L2347,951L2304,1223Z" fill="#6093fa" stroke="#6093fa" stroke-width="1.51"/><path d="M2648,1492L2600,1188L2385,1550Z" fill="#4389f9" stroke="#4389f9" stroke-width="1.51"/><path d="M-386,206L-92,446L-69,108Z" fill="#f2f3ff" stroke="#f2f3ff" stroke-width="1.51"/><path d="M-386,206L-391,473L-92,446Z" fill="#ebeeff" stroke="#ebeeff" stroke-width="1.51"/><path d="M-349,1272L-354,1469L-118,1202Z" fill="#b5c4fd" stroke="#b5c4fd" stroke-width="1.51"/><path d="M-409,1813L-354,1469L-349,1272Z" fill="#b1c2fd" stroke="#b1c2fd" stroke-width="1.51"/><path d="M-409,1813L-349,1272L-380,689Z" fill="#b9c7fe" stroke="#b9c7fe" stroke-width="1.51"/><path d="M151,-170L-110,-144L-69,108Z" fill="#ffffff" stroke="#ffffff" stroke-width="1.51"/><path d="M-107,-381L-110,-144L151,-170Z" fill="#ffffff" stroke="#ffffff" stroke-width="1.51"/><path d="M453,-422L151,-398L151,-170Z" fill="#f7f8ff" stroke="#f7f8ff" stroke-width="1.51"/><path d="M1784,-381L2543,-437L1294,-415Z" fill="#bfcbfe" stroke="#bfcbfe" stroke-width="1.51"/><path d="M2276,-74L2095,-369L2071,-137Z" fill="#b5c4fd" stroke="#b5c4fd" stroke-width="1.51"/><path d="M2276,-74L2373,-336L2095,-369Z" fill="#b1c2fd" stroke="#b1c2fd" stroke-width="1.51"/><path d="M2602,718L2636,367L2384,415Z" fill="#91acfc" stroke="#91acfc" stroke-width="1.51"/><path d="M2613,973L2636,367L2602,718Z" fill="#84a5fb" stroke="#84a5fb" stroke-width="1.51"/><path d="M-333,-155L-386,206L-69,108Z" fill="#fcfcff" stroke="#fcfcff" stroke-width="1.51"/><path d="M2636,367L2589,178L2384,415Z" fill="#9db4fd" stroke="#9db4fd" stroke-width="1.51"/><path d="M2647,1751L2648,1492L2385,1550Z" fill="#4389f9" stroke="#4389f9" stroke-width="1.51"/><path d="M2600,1188L2648,1492L2613,973Z" fill="#568ffa" stroke="#568ffa" stroke-width="1.51"/><path d="M2613,973L2648,1492L2636,367Z" fill="#6f9afb" stroke="#6f9afb" stroke-width="1.51"/><path d="M-110,-144L-333,-155L-69,108Z" fill="#ffffff" stroke="#ffffff" stroke-width="1.51"/><path d="M151,-398L-107,-381L151,-170Z" fill="#fdfdff" stroke="#fdfdff" stroke-width="1.51"/><path d="M-358,-395L-107,-381L151,-398Z" fill="#ffffff" stroke="#ffffff" stroke-width="1.51"/><path d="M2608,-132L2373,-336L2276,-74Z" fill="#b1c2fd" stroke="#b1c2fd" stroke-width="1.51"/><path d="M-107,-381L-333,-155L-110,-144Z" fill="#ffffff" stroke="#ffffff" stroke-width="1.51"/><path d="M-391,473L-409,1813L-380,689Z" fill="#c8d2fe" stroke="#c8d2fe" stroke-width="1.51"/><path d="M-354,1469L-409,1813L-64,1820Z" fill="#b1c2fd" stroke="#b1c2fd" stroke-width="1.51"/><path d="M2299,1772L2647,1751L2385,1550Z" fill="#4389f9" stroke="#4389f9" stroke-width="1.51"/><path d="M1799,1808L2647,1751L2299,1772Z" fill="#4389f9" stroke="#4389f9" stroke-width="1.51"/><path d="M2589,178L2608,-132L2295,100Z" fill="#aec0fd" stroke="#aec0fd" stroke-width="1.51"/><path d="M2636,367L2608,-132L2589,178Z" fill="#a9bcfd" stroke="#a9bcfd" stroke-width="1.51"/><path d="M-107,-381L-358,-395L-333,-155Z" fill="#ffffff" stroke="#ffffff" stroke-width="1.51"/><path d="M-333,-155L-358,-395L-386,206Z" fill="#ffffff" stroke="#ffffff" stroke-width="1.51"/><path d="M453,-422L-358,-395L151,-398Z" fill="#fdfcff" stroke="#fdfcff" stroke-width="1.51"/><path d="M2608,-132L2543,-437L2373,-336Z" fill="#b1c2fd" stroke="#b1c2fd" stroke-width="1.51"/><path d="M2373,-336L2543,-437L2095,-369Z" fill="#b1c2fd" stroke="#b1c2fd" stroke-width="1.51"/><path d="M2095,-369L2543,-437L1784,-381Z" fill="#b5c4fd" stroke="#b5c4fd" stroke-width="1.51"/><path d="M1294,-415L2543,-437L761,-429Z" fill="#cbd5fe" stroke="#cbd5fe" stroke-width="1.51"/></svg>