<?xml version="1.0" encoding="UTF-8" standalone="no"?>
<svg
   xmlns:dc="http://purl.org/dc/elements/1.1/"
   xmlns:cc="http://creativecommons.org/ns#"
   xmlns:rdf="http://www.w3.org/1999/02/22-rdf-syntax-ns#"
   xmlns:svg="http://www.w3.org/2000/svg"
   xmlns="http://www.w3.org/2000/svg"
   xmlns:sodipodi="http://sodipodi.sourceforge.net/DTD/sodipodi-0.dtd"
   xmlns:inkscape="http://www.inkscape.org/namespaces/inkscape"
   fill="#000000"
   viewBox="0 0 26 26"
   width="26px"
   height="26px"
   version="1.1"
   id="svg4"
   sodipodi:docname="icons8-star (copy).svg"
   inkscape:version="0.92.4 (5da689c313, 2019-01-14)">
  <metadata
     id="metadata10">
    <rdf:RDF>
      <cc:Work
         rdf:about="">
        <dc:format>image/svg+xml</dc:format>
        <dc:type
           rdf:resource="http://purl.org/dc/dcmitype/StillImage" />
      </cc:Work>
    </rdf:RDF>
  </metadata>
  <defs
     id="defs8" />
  <sodipodi:namedview
     pagecolor="#ffffff"
     bordercolor="#666666"
     borderopacity="1"
     objecttolerance="10"
     gridtolerance="10"
     guidetolerance="10"
     inkscape:pageopacity="0"
     inkscape:pageshadow="2"
     inkscape:window-width="1206"
     inkscape:window-height="858"
     id="namedview6"
     showgrid="false"
     inkscape:zoom="9.0769231"
     inkscape:cx="13"
     inkscape:cy="13"
     inkscape:window-x="70"
     inkscape:window-y="27"
     inkscape:window-maximized="0"
     inkscape:current-layer="svg4" />
  <path
     d="M 13.03125 1.15625 C 12.957031 1.160156 12.882813 1.167969 12.8125 1.1875 C 12.496094 1.25 12.230469 1.457031 12.09375 1.75 L 8.84375 8.375 L 1.46875 9.46875 C 1.105469 9.535156 0.804688 9.796875 0.695313 10.152344 C 0.582031 10.507813 0.675781 10.894531 0.9375 11.15625 L 6.21875 16.34375 L 5 23.65625 C 4.9375 24.027344 5.085938 24.40625 5.390625 24.632813 C 5.695313 24.855469 6.101563 24.890625 6.4375 24.71875 L 13 21.25 L 19.5625 24.71875 C 19.898438 24.890625 20.304688 24.855469 20.609375 24.632813 C 20.914063 24.40625 21.0625 24.027344 21 23.65625 L 19.78125 16.34375 L 25.0625 11.15625 C 25.324219 10.894531 25.417969 10.507813 25.304688 10.152344 C 25.195313 9.796875 24.894531 9.535156 24.53125 9.46875 L 17.15625 8.375 L 13.90625 1.75 C 13.75 1.402344 13.414063 1.171875 13.03125 1.15625 Z M 13 4.46875 L 15.625 9.75 C 15.773438 10.039063 16.054688 10.238281 16.375 10.28125 L 22.21875 11.15625 L 18 15.28125 C 17.757813 15.503906 17.640625 15.832031 17.6875 16.15625 L 18.6875 22 L 13.46875 19.25 C 13.175781 19.09375 12.824219 19.09375 12.53125 19.25 L 7.3125 22 L 8.3125 16.15625 C 8.359375 15.832031 8.242188 15.503906 8 15.28125 L 3.78125 11.15625 L 9.625 10.28125 C 9.945313 10.238281 10.226563 10.039063 10.375 9.75 Z"
     id="path2" />
  <path
     style="fill:#ffff00;stroke-width:0.11016949"
     d="M 7.4140607,21.641336 C 7.4478242,21.499745 7.6840147,20.158404 7.9389285,18.660578 8.3228069,16.40498 8.3805227,15.88442 8.2749796,15.629617 8.2048938,15.460415 7.2001062,14.407607 6.0421183,13.290044 4.1036849,11.41928 3.9575139,11.251687 4.1992751,11.177126 4.3436992,11.132584 5.6764831,10.91656 7.1610169,10.697072 8.6455508,10.477585 9.959322,10.232557 10.080508,10.152566 10.201695,10.072576 10.894937,8.8114999 11.621046,7.3501749 12.347155,5.8888498 12.967685,4.6932203 13,4.6932203 c 0.03232,0 0.652845,1.1956295 1.378954,2.6569546 0.72611,1.461325 1.419351,2.7216071 1.540538,2.8006271 0.121186,0.07902 1.434957,0.324226 2.919491,0.544904 1.484534,0.220678 2.816168,0.437113 2.959188,0.480967 0.238212,0.07304 0.0794,0.255064 -1.892421,2.168904 -1.347976,1.308343 -2.179526,2.198531 -2.224887,2.381777 -0.04254,0.171853 0.133926,1.488652 0.427606,3.190803 0.27502,1.594008 0.488089,2.910144 0.473485,2.924747 -0.0146,0.0146 -1.189759,-0.589349 -2.611456,-1.342118 -1.816456,-0.961787 -2.696369,-1.369664 -2.959846,-1.372016 -0.267792,-0.0024 -0.991925,0.323317 -2.533899,1.139721 -1.1874258,0.628686 -2.3761093,1.25269 -2.6415183,1.386673 l -0.4825618,0.243608 z"
     id="path3715"
     inkscape:connector-curvature="0" />
</svg>
